<?xml version="1.0" encoding="UTF-8" standalone="no"?>
<!DOCTYPE svg PUBLIC "-//W3C//DTD SVG 1.1//EN" "http://www.w3.org/Graphics/SVG/1.1/DTD/svg11.dtd">
<!-- Generated by graphviz version 2.40.1 (20161225.0304)
 -->
<!-- Title: java Pages: 1 -->
<svg width="340pt" height="396pt" viewBox="0.00 0.00 340.19 396.40" xmlns="http://www.w3.org/2000/svg" xmlns:xlink="http://www.w3.org/1999/xlink">
<g id="graph0" class="graph" transform="scale(1 1) rotate(0) translate(4 392.4)">
<title>java</title>
<polygon fill="#ffffff" stroke="transparent" points="-4,4 -4,-392.4 336.1928,-392.4 336.1928,4 -4,4"/>
<!-- RosBridge -->
<g id="node1" class="node">
<title>RosBridge</title>
<polygon fill="none" stroke="#000000" points="0,-.5 0,-259.7 332.1928,-259.7 332.1928,-.5 0,-.5"/>
<text text-anchor="middle" x="166.0964" y="-243.1" font-family="Times,serif" font-size="14.00" fill="#000000">RosBridge</text>
<polyline fill="none" stroke="#000000" points="0,-234.9 332.1928,-234.9 "/>
<text text-anchor="start" x="8" y="-218.3" font-family="Times,serif" font-size="14.00" fill="#000000">+ RosBridge(BProgram, BProgramRunner) : </text>
<polyline fill="none" stroke="#000000" points="0,-210.1 332.1928,-210.1 "/>
<text text-anchor="start" x="8" y="-193.5" font-family="Times,serif" font-size="14.00" fill="#000000">+ callServiceAndWait(String, String) : ServiceResponse</text>
<text text-anchor="start" x="8" y="-176.7" font-family="Times,serif" font-size="14.00" fill="#000000"> + addTopic(String, String) : void</text>
<text text-anchor="start" x="8" y="-159.9" font-family="Times,serif" font-size="14.00" fill="#000000"> - connect() : void</text>
<text text-anchor="start" x="8" y="-143.1" font-family="Times,serif" font-size="14.00" fill="#000000"> + addTopic(String, String, Map&lt;?, ?&gt;) : void</text>
<text text-anchor="start" x="8" y="-126.3" font-family="Times,serif" font-size="14.00" fill="#000000"> - subscribe(String, TopicCallback) : void</text>
<text text-anchor="start" x="8" y="-109.5" font-family="Times,serif" font-size="14.00" fill="#000000"> + subscribe(String) : void</text>
<text text-anchor="start" x="8" y="-92.7" font-family="Times,serif" font-size="14.00" fill="#000000"> + addTopic(String, String, Properties) : void</text>
<text text-anchor="start" x="8" y="-75.9" font-family="Times,serif" font-size="14.00" fill="#000000"> + disconnect() : void</text>
<text text-anchor="start" x="8" y="-59.1" font-family="Times,serif" font-size="14.00" fill="#000000"> + advertise(String, String) : void</text>
<text text-anchor="start" x="8" y="-42.3" font-family="Times,serif" font-size="14.00" fill="#000000"> + addService(String, String) : void</text>
<text text-anchor="start" x="8" y="-25.5" font-family="Times,serif" font-size="14.00" fill="#000000"> + publish(String, String) : void</text>
<text text-anchor="start" x="8" y="-8.7" font-family="Times,serif" font-size="14.00" fill="#000000"> + sampleData() : void</text>
</g>
<!-- Turtlebot3Main -->
<g id="node2" class="node">
<title>Turtlebot3Main</title>
<polygon fill="none" stroke="#000000" points="94.0772,-313.5 94.0772,-387.9 238.1156,-387.9 238.1156,-313.5 94.0772,-313.5"/>
<text text-anchor="middle" x="166.0964" y="-371.3" font-family="Times,serif" font-size="14.00" fill="#000000">Turtlebot3Main</text>
<polyline fill="none" stroke="#000000" points="94.0772,-363.1 238.1156,-363.1 "/>
<text text-anchor="start" x="102.0772" y="-346.5" font-family="Times,serif" font-size="14.00" fill="#000000">+ Turtlebot3Main() : </text>
<polyline fill="none" stroke="#000000" points="94.0772,-338.3 238.1156,-338.3 "/>
<text text-anchor="start" x="102.0772" y="-321.7" font-family="Times,serif" font-size="14.00" fill="#000000">+ main(String[]) : void</text>
</g>
<!-- Turtlebot3Main&#45;&gt;RosBridge -->
<g id="edge1" class="edge">
<title>Turtlebot3Main-&gt;RosBridge</title>
<path fill="none" stroke="#595959" stroke-dasharray="5,2" d="M166.0964,-313.2782C166.0964,-313.2782 166.0964,-269.9887 166.0964,-269.9887"/>
<polygon fill="#595959" stroke="#595959" points="166.0964,-259.9887 170.5965,-269.9886 166.0964,-264.9887 166.0965,-269.9887 166.0965,-269.9887 166.0965,-269.9887 166.0964,-264.9887 161.5965,-269.9887 166.0964,-259.9887 166.0964,-259.9887"/>
<text text-anchor="middle" x="194.4618" y="-282.4" font-family="Times,serif" font-size="14.00" fill="#000000">«create»</text>
</g>
</g>
</svg>